# Blender v2.78 (sub 0) OBJ File: ''
# www.blender.org
mtllib object.mtl
o Cube
v 1.000000 -0.029564 -1.000000
v 1.000000 -0.029564 1.000000
v -1.000000 -0.029564 1.000000
v -1.000000 -0.029564 -1.000000
v 1.000000 1.970436 -0.999999
v 0.999999 1.970436 1.000001
v -1.000000 1.970436 1.000000
v -1.000000 1.970436 -1.000000
v 12.939385 -0.029564 -12.939386
v 12.939385 -0.029564 12.939388
v -12.939385 -0.029564 -12.939392
v -12.939392 -0.029564 12.939386
v 12.939385 19.269316 -12.939386
v 12.939385 19.269316 12.939388
v -12.939385 19.269316 -12.939392
v -12.939392 19.269316 12.939386
vn 0.0000 1.0000 0.0000
vn 1.0000 -0.0000 0.0000
vn 0.0000 -0.0000 1.0000
vn -1.0000 -0.0000 -0.0000
vn 0.0000 0.0000 -1.0000
vn 0.0000 -1.0000 -0.0000
usemtl Material
s off
f 2//1 9//1 1//1
f 8//1 6//1 5//1
f 5//2 2//2 1//2
f 6//3 3//3 2//3
f 3//4 8//4 4//4
f 1//5 8//5 5//5
f 11//2 16//2 12//2
f 4//1 12//1 3//1
f 3//1 10//1 2//1
f 4//1 9//1 11//1
f 13//6 16//6 15//6
f 9//3 15//3 11//3
f 12//5 14//5 10//5
f 10//4 13//4 9//4
f 2//1 10//1 9//1
f 8//1 7//1 6//1
f 5//2 6//2 2//2
f 6//3 7//3 3//3
f 3//4 7//4 8//4
f 1//5 4//5 8//5
f 11//2 15//2 16//2
f 4//1 11//1 12//1
f 3//1 12//1 10//1
f 4//1 1//1 9//1
f 13//6 14//6 16//6
f 9//3 13//3 15//3
f 12//5 16//5 14//5
f 10//4 14//4 13//4
