# Blender v2.79 (sub 0) OBJ File: 'cornell_box.blend'
# www.blender.org
mtllib cornell_box.mtl
o Cube_Cube.001
v -2.450683 0.019159 2.450683
v -2.450683 4.920526 2.450683
v -2.450683 0.019159 -2.450683
v -2.450683 4.920526 -2.450683
v 2.450683 0.019159 2.450683
v 2.450683 4.920526 2.450683
v 2.450683 0.019159 -2.450683
v 2.450683 4.920526 -2.450683
v -1.200239 0.020083 1.491124
v -1.200239 2.927700 1.491124
v -1.468658 0.020083 0.315451
v -1.468658 2.927700 0.315451
v -0.024567 0.020083 1.222705
v -0.024567 2.927700 1.222705
v -0.292986 0.020083 0.047033
v -0.292986 2.927700 0.047033
v 0.297344 0.020083 -0.697628
v 0.297344 1.001005 -0.697628
v 0.616713 0.020083 -1.860494
v 0.616713 1.001005 -1.860494
v 1.460210 0.020083 -0.378259
v 1.460210 1.001005 -0.378259
v 1.779579 0.020083 -1.541125
v 1.779579 1.001005 -1.541125
vn 1.0000 0.0000 0.0000
vn 0.0000 0.0000 1.0000
vn -0.9749 0.0000 0.2226
vn 0.0000 0.0000 -1.0000
vn 0.0000 1.0000 0.0000
vn 0.0000 -1.0000 0.0000
vn -0.2226 0.0000 -0.9749
vn 0.9749 0.0000 -0.2226
vn 0.2226 0.0000 0.9749
vn -0.9643 0.0000 -0.2648
vn 0.2648 0.0000 -0.9643
vn 0.9643 0.0000 0.2648
vn -0.2648 0.0000 0.9643
usemtl None
s off
f 3//1 2//1 1//1
f 7//2 4//2 3//2
f 10//3 11//3 9//3
f 1//4 6//4 5//4
f 1//5 7//5 3//5
f 6//6 4//6 8//6
f 12//7 15//7 11//7
f 16//8 13//8 15//8
f 14//9 9//9 13//9
f 15//6 9//6 11//6
f 12//5 14//5 16//5
f 18//10 19//10 17//10
f 20//11 23//11 19//11
f 24//12 21//12 23//12
f 22//13 17//13 21//13
f 23//6 17//6 19//6
f 20//5 22//5 24//5
f 3//1 4//1 2//1
f 7//2 8//2 4//2
f 10//3 12//3 11//3
f 1//4 2//4 6//4
f 1//5 5//5 7//5
f 6//6 2//6 4//6
f 12//7 16//7 15//7
f 16//8 14//8 13//8
f 14//9 10//9 9//9
f 15//6 13//6 9//6
f 12//5 10//5 14//5
f 18//10 20//10 19//10
f 20//11 24//11 23//11
f 24//12 22//12 21//12
f 22//13 18//13 17//13
f 23//6 21//6 17//6
f 20//5 18//5 22//5
